<?xml version="1.0" encoding="UTF-8" standalone="no"?>
<svg width="16px" height="16px" viewBox="0 0 16 16" version="1.1" xmlns="http://www.w3.org/2000/svg" xmlns:xlink="http://www.w3.org/1999/xlink">
    <!-- Generator: Sketch 3.8.3 (29802) - http://www.bohemiancoding.com/sketch -->
    <title>Shape</title>
    <desc>Created with Sketch.</desc>
    <defs></defs>
    <g id="Page-1" stroke="none" stroke-width="1" fill="none" fill-rule="evenodd">
        <g id="FindMe16c" transform="translate(-343.000000, -353.000000)" fill="#C5DCCF">
            <path d="M346.64621,367 L345.571432,367 L345.571432,365.714284 L344.285716,365.714284 L344.285716,364.639506 L345.199779,363.725443 L347.560273,366.085936 L346.64621,367 Z M351.899564,357.67856 C351.899564,357.738828 351.879475,357.799096 351.829252,357.849319 L346.385049,363.293522 C346.334825,363.343746 346.274557,363.363835 346.21429,363.363835 C346.083709,363.363835 345.993307,363.273433 345.993307,363.142853 C345.993307,363.082585 346.013396,363.022317 346.06362,362.972093 L351.507823,357.52789 C351.558046,357.477667 351.618314,357.457578 351.678582,357.457578 C351.809162,357.457578 351.899564,357.54798 351.899564,357.67856 L351.899564,357.67856 Z M351.357153,355.749987 L343,364.107139 L343,368.285716 L347.178576,368.285716 L355.535729,359.928563 L351.357153,355.749987 Z M358.217652,356.714273 C358.217652,356.372755 358.077027,356.041282 357.846,355.80021 L355.485506,353.449761 C355.244434,353.208689 354.912961,353.068064 354.571442,353.068064 C354.229924,353.068064 353.89845,353.208689 353.667423,353.449761 L352.000011,355.107129 L356.178587,359.285705 L357.846,357.618292 C358.077027,357.387265 358.217652,357.055792 358.217652,356.714273 L358.217652,356.714273 Z" id="Shape"></path>
        </g>
    </g>
</svg>