<?xml version="1.0" encoding="UTF-8" standalone="no"?>
<svg width="19px" height="21px" viewBox="0 0 19 21" version="1.1" xmlns="http://www.w3.org/2000/svg" xmlns:xlink="http://www.w3.org/1999/xlink">
    <!-- Generator: Sketch 3.8.3 (29802) - http://www.bohemiancoding.com/sketch -->
    <title>Shape</title>
    <desc>Created with Sketch.</desc>
    <defs></defs>
    <g id="Page-1" stroke="none" stroke-width="1" fill="none" fill-rule="evenodd">
        <g id="FindMe16c" transform="translate(-340.000000, -407.000000)" fill="#85B79B">
            <path d="M346.857151,423.85714 C346.857151,424.098212 346.669651,424.285712 346.428579,424.285712 L345.571435,424.285712 C345.330363,424.285712 345.142863,424.098212 345.142863,423.85714 L345.142863,414.428558 C345.142863,414.187486 345.330363,413.999986 345.571435,413.999986 L346.428579,413.999986 C346.669651,413.999986 346.857151,414.187486 346.857151,414.428558 L346.857151,423.85714 Z M350.285727,423.85714 C350.285727,424.098212 350.098226,424.285712 349.857155,424.285712 L349.000011,424.285712 C348.758939,424.285712 348.571439,424.098212 348.571439,423.85714 L348.571439,414.428558 C348.571439,414.187486 348.758939,413.999986 349.000011,413.999986 L349.857155,413.999986 C350.098226,413.999986 350.285727,414.187486 350.285727,414.428558 L350.285727,423.85714 Z M353.714302,423.85714 C353.714302,424.098212 353.526802,424.285712 353.28573,424.285712 L352.428586,424.285712 C352.187515,424.285712 352.000014,424.098212 352.000014,423.85714 L352.000014,414.428558 C352.000014,414.187486 352.187515,413.999986 352.428586,413.999986 L353.28573,413.999986 C353.526802,413.999986 353.714302,414.187486 353.714302,414.428558 L353.714302,423.85714 Z M346.428579,410.57141 L347.08483,409.004444 C347.125008,408.950873 347.232151,408.870515 347.312509,408.857122 L351.558049,408.857122 C351.625014,408.870515 351.74555,408.950873 351.785728,409.004444 L352.428586,410.57141 L346.428579,410.57141 Z M358.857165,410.999982 C358.857165,410.75891 358.669665,410.57141 358.428593,410.57141 L354.290196,410.57141 L353.352694,408.3348 C353.084837,407.67855 352.281265,407.142835 351.571442,407.142835 L347.285723,407.142835 C346.575901,407.142835 345.772328,407.67855 345.504471,408.3348 L344.56697,410.57141 L340.428572,410.57141 C340.1875,410.57141 340,410.75891 340,410.999982 L340,411.857126 C340,412.098198 340.1875,412.285698 340.428572,412.285698 L341.714288,412.285698 L341.714288,425.035713 C341.714288,426.508929 342.678575,427.714288 343.857147,427.714288 L355.000018,427.714288 C356.178591,427.714288 357.142878,426.455358 357.142878,424.982142 L357.142878,412.285698 L358.428593,412.285698 C358.669665,412.285698 358.857165,412.098198 358.857165,411.857126 L358.857165,410.999982 Z" id="Shape"></path>
        </g>
    </g>
</svg>