<?xml version="1.0" encoding="UTF-8" standalone="no"?>
<svg width="32px" height="25px" viewBox="0 0 32 25" version="1.1" xmlns="http://www.w3.org/2000/svg" xmlns:xlink="http://www.w3.org/1999/xlink">
    <!-- Generator: Sketch 39.1 (31720) - http://www.bohemiancoding.com/sketch -->
    <title></title>
    <desc>Created with Sketch.</desc>
    <defs></defs>
    <g id="Page-1" stroke="none" stroke-width="1" fill="none" fill-rule="evenodd">
        <g id="FindMeGender02" transform="translate(-19.000000, -152.000000)" fill="#85B79B">
            <path d="M50.5692364,157.51337 C50.5692364,157.011137 50.3683433,156.508904 50.0067358,156.147297 L47.2745897,153.41515 C46.9129821,153.053543 46.4107493,152.85265 45.9085166,152.85265 C45.4062839,152.85265 44.9040511,153.053543 44.5424435,153.41515 L31.3638564,166.613827 L25.4575994,160.687481 C25.0959918,160.325873 24.5937591,160.12498 24.0915263,160.12498 C23.5892936,160.12498 23.0870608,160.325873 22.7254533,160.687481 L19.9933071,163.419627 C19.6316996,163.781234 19.4308065,164.283467 19.4308065,164.7857 C19.4308065,165.287932 19.6316996,165.790165 19.9933071,166.151773 L27.2656372,173.424103 L29.9977834,176.156249 C30.3593909,176.517857 30.8616237,176.71875 31.3638564,176.71875 C31.8660892,176.71875 32.3683219,176.517857 32.7299295,176.156249 L35.4620756,173.424103 L50.0067358,158.879443 C50.3683433,158.517835 50.5692364,158.015602 50.5692364,157.51337 L50.5692364,157.51337 Z" id=""></path>
        </g>
    </g>
</svg>